<?xml version="1.0" encoding="utf-8"?>
<!-- Generator: Adobe Illustrator 21.0.0, SVG Export Plug-In . SVG Version: 6.00 Build 0)  -->
<svg version="1.1" id="Layer_2" xmlns="http://www.w3.org/2000/svg" xmlns:xlink="http://www.w3.org/1999/xlink" x="0px" y="0px"
	 viewBox="0 0 157 179" style="enable-background:new 0 0 157 179;" xml:space="preserve">
<style type="text/css">
	.st0{fill:#EEEEEE;}
	.st1{fill:none;stroke:#EEEEEE;stroke-width:4;stroke-miterlimit:10;}
</style>
<path id="Ground" class="st0" d="M46.6,170.3c9.1-3,43.2-12.5,79.1,0c0.4,0.2,0.3,0.7-0.2,0.7c-36.5-1.3-69.6-0.3-78.8,0
	C46.3,171,46.2,170.4,46.6,170.3z"/>
<path id="Root" class="st0" d="M91,169.2L78,170l3.9-21.5c1.4-7.9,0.9-15.9-1.4-23.6L74,104h17l3.4,14.3c3,12.5,2.9,25.6-0.2,38
	L91,169.2z"/>
<g id="Head">
	<path class="st1" d="M86.4,16.7C82.4,15.6,78.3,15,74,15c-3.4,0-6.8,0.4-10,1.1c10.2,40.2-32.6,31.4-32.6,31.4S74.2,56.3,64,16.1
		c-20,4.6-35,22.5-35,43.9c0,4.5,0.7,8.8,1.9,12.9C31.2,73,105.7,88.3,86.4,16.7z"/>
	<path class="st1" d="M86.4,16.7C105.7,88.3,31.2,73,30.9,72.9C36.5,91.5,53.6,105,74,105c24.9,0,45-20.1,45-45
		C119,39.4,105.2,22.1,86.4,16.7z"/>
</g>
</svg>
